<?xml version="1.0" encoding="UTF-8" standalone="no"?>
<!DOCTYPE svg PUBLIC "-//W3C//DTD SVG 1.1//EN"
 "http://www.w3.org/Graphics/SVG/1.1/DTD/svg11.dtd">
<!-- Generated by graphviz version 2.43.0 (0)
 -->
<!-- Title: dependency&#45;cruiser output Pages: 1 -->
<svg width="639pt" height="631pt"
 viewBox="0.00 0.00 639.00 631.00" xmlns="http://www.w3.org/2000/svg" xmlns:xlink="http://www.w3.org/1999/xlink">
<g id="graph0" class="graph" transform="scale(1 1) rotate(0) translate(4 627)">
<title>dependency&#45;cruiser output</title>
<polygon fill="white" stroke="transparent" points="-4,4 -4,-627 635,-627 635,4 -4,4"/>
<g id="clust1" class="cluster">
<title>cluster___mocks__</title>
<path fill="#ffffff" stroke="black" stroke-width="2" d="M20,-425C20,-425 180,-425 180,-425 186,-425 192,-431 192,-437 192,-437 192,-525 192,-525 192,-531 186,-537 180,-537 180,-537 20,-537 20,-537 14,-537 8,-531 8,-525 8,-525 8,-437 8,-437 8,-431 14,-425 20,-425"/>
<text text-anchor="middle" x="100" y="-525.8" font-family="Helvetica,sans-Serif" font-weight="bold" font-size="9.00">__mocks__</text>
</g>
<g id="clust2" class="cluster">
<title>cluster___mocks__/@react&#45;native&#45;async&#45;storage</title>
<path fill="#ffffff" stroke="black" stroke-width="2" d="M30.5,-459C30.5,-459 170.5,-459 170.5,-459 176.5,-459 182.5,-465 182.5,-471 182.5,-471 182.5,-499 182.5,-499 182.5,-505 176.5,-511 170.5,-511 170.5,-511 30.5,-511 30.5,-511 24.5,-511 18.5,-505 18.5,-499 18.5,-499 18.5,-471 18.5,-471 18.5,-465 24.5,-459 30.5,-459"/>
<text text-anchor="middle" x="100.5" y="-499.8" font-family="Helvetica,sans-Serif" font-weight="bold" font-size="9.00">@react&#45;native&#45;async&#45;storage</text>
</g>
<g id="clust3" class="cluster">
<title>cluster___tests__</title>
<path fill="#ffffff" stroke="black" stroke-width="2" d="M47.5,-204C47.5,-204 152.5,-204 152.5,-204 158.5,-204 164.5,-210 164.5,-216 164.5,-216 164.5,-334 164.5,-334 164.5,-340 158.5,-346 152.5,-346 152.5,-346 47.5,-346 47.5,-346 41.5,-346 35.5,-340 35.5,-334 35.5,-334 35.5,-216 35.5,-216 35.5,-210 41.5,-204 47.5,-204"/>
<text text-anchor="middle" x="100" y="-334.8" font-family="Helvetica,sans-Serif" font-weight="bold" font-size="9.00">__tests__</text>
</g>
<g id="clust4" class="cluster">
<title>cluster_components</title>
<path fill="#ffffff" stroke="black" stroke-width="2" d="M390,-8C390,-8 611,-8 611,-8 617,-8 623,-14 623,-20 623,-20 623,-584 623,-584 623,-590 617,-596 611,-596 611,-596 390,-596 390,-596 384,-596 378,-590 378,-584 378,-584 378,-20 378,-20 378,-14 384,-8 390,-8"/>
<text text-anchor="middle" x="500.5" y="-584.8" font-family="Helvetica,sans-Serif" font-weight="bold" font-size="9.00">components</text>
</g>
<g id="clust5" class="cluster">
<title>cluster_components/chat</title>
<path fill="#ffffff" stroke="black" stroke-width="2" d="M404.5,-222C404.5,-222 589.5,-222 589.5,-222 595.5,-222 601.5,-228 601.5,-234 601.5,-234 601.5,-292 601.5,-292 601.5,-298 595.5,-304 589.5,-304 589.5,-304 404.5,-304 404.5,-304 398.5,-304 392.5,-298 392.5,-292 392.5,-292 392.5,-234 392.5,-234 392.5,-228 398.5,-222 404.5,-222"/>
<text text-anchor="middle" x="497" y="-292.8" font-family="Helvetica,sans-Serif" font-weight="bold" font-size="9.00">chat</text>
</g>
<g id="clust6" class="cluster">
<title>cluster_components/home</title>
<path fill="#ffffff" stroke="black" stroke-width="2" d="M399.5,-312C399.5,-312 603,-312 603,-312 609,-312 615,-318 615,-324 615,-324 615,-558 615,-558 615,-564 609,-570 603,-570 603,-570 399.5,-570 399.5,-570 393.5,-570 387.5,-564 387.5,-558 387.5,-558 387.5,-324 387.5,-324 387.5,-318 393.5,-312 399.5,-312"/>
<text text-anchor="middle" x="501.25" y="-558.8" font-family="Helvetica,sans-Serif" font-weight="bold" font-size="9.00">home</text>
</g>
<g id="clust7" class="cluster">
<title>cluster_components/home/icons</title>
<path fill="#ffffff" stroke="black" stroke-width="2" d="M520,-346C520,-346 595,-346 595,-346 601,-346 607,-352 607,-358 607,-358 607,-476 607,-476 607,-482 601,-488 595,-488 595,-488 520,-488 520,-488 514,-488 508,-482 508,-476 508,-476 508,-358 508,-358 508,-352 514,-346 520,-346"/>
<text text-anchor="middle" x="557.5" y="-476.8" font-family="Helvetica,sans-Serif" font-weight="bold" font-size="9.00">icons</text>
</g>
<g id="clust8" class="cluster">
<title>cluster_components/tabNavigation</title>
<path fill="#ffffff" stroke="black" stroke-width="2" d="M398,-16C398,-16 488,-16 488,-16 494,-16 500,-22 500,-28 500,-28 500,-176 500,-176 500,-182 494,-188 488,-188 488,-188 398,-188 398,-188 392,-188 386,-182 386,-176 386,-176 386,-28 386,-28 386,-22 392,-16 398,-16"/>
<text text-anchor="middle" x="443" y="-176.8" font-family="Helvetica,sans-Serif" font-weight="bold" font-size="9.00">tabNavigation</text>
</g>
<g id="clust9" class="cluster">
<title>cluster_screens</title>
<path fill="#ffffff" stroke="black" stroke-width="2" d="M275,-234C275,-234 358,-234 358,-234 364,-234 370,-240 370,-246 370,-246 370,-334 370,-334 370,-340 364,-346 358,-346 358,-346 275,-346 275,-346 269,-346 263,-340 263,-334 263,-334 263,-246 263,-246 263,-240 269,-234 275,-234"/>
<text text-anchor="middle" x="316.5" y="-334.8" font-family="Helvetica,sans-Serif" font-weight="bold" font-size="9.00">screens</text>
</g>
<!-- .eslintrc.js -->
<g id="node1" class="node">
<title>.eslintrc.js</title>
<g id="a_node1"><a xlink:href=".eslintrc.js" xlink:title=".eslintrc.js">
<path fill="#ccffcc" stroke="black" d="M125,-124C125,-124 75,-124 75,-124 72,-124 69,-121 69,-118 69,-118 69,-112 69,-112 69,-109 72,-106 75,-106 75,-106 125,-106 125,-106 128,-106 131,-109 131,-112 131,-112 131,-118 131,-118 131,-121 128,-124 125,-124"/>
<text text-anchor="middle" x="100" y="-112.8" font-family="Helvetica,sans-Serif" font-size="9.00">.eslintrc.js</text>
</a>
</g>
</g>
<!-- .prettierrc.js -->
<g id="node2" class="node">
<title>.prettierrc.js</title>
<g id="a_node2"><a xlink:href=".prettierrc.js" xlink:title=".prettierrc.js">
<path fill="#ccffcc" stroke="black" d="M130,-154C130,-154 70,-154 70,-154 67,-154 64,-151 64,-148 64,-148 64,-142 64,-142 64,-139 67,-136 70,-136 70,-136 130,-136 130,-136 133,-136 136,-139 136,-142 136,-142 136,-148 136,-148 136,-151 133,-154 130,-154"/>
<text text-anchor="middle" x="100" y="-142.8" font-family="Helvetica,sans-Serif" font-size="9.00">.prettierrc.js</text>
</a>
</g>
</g>
<!-- App.js -->
<g id="node3" class="node">
<title>App.js</title>
<g id="a_node3"><a xlink:href="App.js" xlink:title="App.js">
<path fill="#ffffcc" stroke="black" d="M248.5,-202C248.5,-202 206.5,-202 206.5,-202 203.5,-202 200.5,-199 200.5,-196 200.5,-196 200.5,-190 200.5,-190 200.5,-187 203.5,-184 206.5,-184 206.5,-184 248.5,-184 248.5,-184 251.5,-184 254.5,-187 254.5,-190 254.5,-190 254.5,-196 254.5,-196 254.5,-199 251.5,-202 248.5,-202"/>
<text text-anchor="middle" x="227.5" y="-190.8" font-family="Helvetica,sans-Serif" font-size="9.00">App.js</text>
</a>
</g>
</g>
<!-- components/chat/MessageArea.js -->
<g id="node4" class="node">
<title>components/chat/MessageArea.js</title>
<g id="a_node4"><a xlink:href="components/chat/MessageArea.js" xlink:title="MessageArea.js">
<path fill="#ffffcc" stroke="black" d="M479.5,-248C479.5,-248 406.5,-248 406.5,-248 403.5,-248 400.5,-245 400.5,-242 400.5,-242 400.5,-236 400.5,-236 400.5,-233 403.5,-230 406.5,-230 406.5,-230 479.5,-230 479.5,-230 482.5,-230 485.5,-233 485.5,-236 485.5,-236 485.5,-242 485.5,-242 485.5,-245 482.5,-248 479.5,-248"/>
<text text-anchor="middle" x="443" y="-236.8" font-family="Helvetica,sans-Serif" font-size="9.00">MessageArea.js</text>
</a>
</g>
</g>
<!-- App.js&#45;&gt;components/chat/MessageArea.js -->
<g id="edge1" class="edge">
<title>App.js&#45;&gt;components/chat/MessageArea.js</title>
<path fill="none" stroke="#000000" stroke-width="2" stroke-opacity="0.200000" d="M248.68,-202.01C253.32,-203.85 258.28,-205.64 263,-207 306.58,-219.59 357.63,-228.13 394.03,-233.2"/>
<polygon fill="#000000" fill-opacity="0.200000" stroke="#000000" stroke-width="2" stroke-opacity="0.200000" points="393.97,-235.31 400.2,-234.04 394.54,-231.15 393.97,-235.31"/>
</g>
<!-- components/Header.js -->
<g id="node5" class="node">
<title>components/Header.js</title>
<g id="a_node5"><a xlink:href="components/Header.js" xlink:title="Header.js">
<path fill="#ffffcc" stroke="black" d="M466,-214C466,-214 420,-214 420,-214 417,-214 414,-211 414,-208 414,-208 414,-202 414,-202 414,-199 417,-196 420,-196 420,-196 466,-196 466,-196 469,-196 472,-199 472,-202 472,-202 472,-208 472,-208 472,-211 469,-214 466,-214"/>
<text text-anchor="middle" x="443" y="-202.8" font-family="Helvetica,sans-Serif" font-size="9.00">Header.js</text>
</a>
</g>
</g>
<!-- App.js&#45;&gt;components/Header.js -->
<g id="edge2" class="edge">
<title>App.js&#45;&gt;components/Header.js</title>
<path fill="none" stroke="#000000" stroke-width="2" stroke-opacity="0.200000" d="M254.68,-194.47C293.2,-196.64 365.2,-200.68 407.84,-203.08"/>
<polygon fill="#000000" fill-opacity="0.200000" stroke="#000000" stroke-width="2" stroke-opacity="0.200000" points="407.8,-205.18 413.91,-203.42 408.04,-200.99 407.8,-205.18"/>
</g>
<!-- components/tabNavigation/ChatIcon.js -->
<g id="node6" class="node">
<title>components/tabNavigation/ChatIcon.js</title>
<g id="a_node6"><a xlink:href="components/tabNavigation/ChatIcon.js" xlink:title="ChatIcon.js">
<path fill="#ffffcc" stroke="black" d="M470.5,-132C470.5,-132 415.5,-132 415.5,-132 412.5,-132 409.5,-129 409.5,-126 409.5,-126 409.5,-120 409.5,-120 409.5,-117 412.5,-114 415.5,-114 415.5,-114 470.5,-114 470.5,-114 473.5,-114 476.5,-117 476.5,-120 476.5,-120 476.5,-126 476.5,-126 476.5,-129 473.5,-132 470.5,-132"/>
<text text-anchor="middle" x="443" y="-120.8" font-family="Helvetica,sans-Serif" font-size="9.00">ChatIcon.js</text>
</a>
</g>
</g>
<!-- App.js&#45;&gt;components/tabNavigation/ChatIcon.js -->
<g id="edge3" class="edge">
<title>App.js&#45;&gt;components/tabNavigation/ChatIcon.js</title>
<path fill="none" stroke="#000000" stroke-width="2" stroke-opacity="0.200000" d="M247.64,-183.84C250.28,-182.12 252.83,-180.16 255,-178 260.08,-172.94 257.25,-168.27 263,-164 304.19,-133.43 364.31,-125.09 403.3,-123.12"/>
<polygon fill="#000000" fill-opacity="0.200000" stroke="#000000" stroke-width="2" stroke-opacity="0.200000" points="403.46,-125.21 409.36,-122.85 403.28,-121.01 403.46,-125.21"/>
</g>
<!-- components/tabNavigation/EmergencyIcon.js -->
<g id="node7" class="node">
<title>components/tabNavigation/EmergencyIcon.js</title>
<g id="a_node7"><a xlink:href="components/tabNavigation/EmergencyIcon.js" xlink:title="EmergencyIcon.js">
<path fill="#ffffcc" stroke="black" d="M486,-102C486,-102 400,-102 400,-102 397,-102 394,-99 394,-96 394,-96 394,-90 394,-90 394,-87 397,-84 400,-84 400,-84 486,-84 486,-84 489,-84 492,-87 492,-90 492,-90 492,-96 492,-96 492,-99 489,-102 486,-102"/>
<text text-anchor="middle" x="443" y="-90.8" font-family="Helvetica,sans-Serif" font-size="9.00">EmergencyIcon.js</text>
</a>
</g>
</g>
<!-- App.js&#45;&gt;components/tabNavigation/EmergencyIcon.js -->
<g id="edge4" class="edge">
<title>App.js&#45;&gt;components/tabNavigation/EmergencyIcon.js</title>
<path fill="none" stroke="#000000" stroke-width="2" stroke-opacity="0.200000" d="M249.21,-183.93C251.43,-182.23 253.45,-180.27 255,-178 268.95,-157.61 245.72,-140.65 263,-123 294.8,-90.51 347.61,-85.11 387.65,-86.59"/>
<polygon fill="#000000" fill-opacity="0.200000" stroke="#000000" stroke-width="2" stroke-opacity="0.200000" points="387.87,-88.7 393.96,-86.88 388.07,-84.51 387.87,-88.7"/>
</g>
<!-- components/tabNavigation/HomeIcon.js -->
<g id="node8" class="node">
<title>components/tabNavigation/HomeIcon.js</title>
<g id="a_node8"><a xlink:href="components/tabNavigation/HomeIcon.js" xlink:title="HomeIcon.js">
<path fill="#ffffcc" stroke="black" d="M473,-72C473,-72 413,-72 413,-72 410,-72 407,-69 407,-66 407,-66 407,-60 407,-60 407,-57 410,-54 413,-54 413,-54 473,-54 473,-54 476,-54 479,-57 479,-60 479,-60 479,-66 479,-66 479,-69 476,-72 473,-72"/>
<text text-anchor="middle" x="443" y="-60.8" font-family="Helvetica,sans-Serif" font-size="9.00">HomeIcon.js</text>
</a>
</g>
</g>
<!-- App.js&#45;&gt;components/tabNavigation/HomeIcon.js -->
<g id="edge5" class="edge">
<title>App.js&#45;&gt;components/tabNavigation/HomeIcon.js</title>
<path fill="none" stroke="#000000" stroke-width="2" stroke-opacity="0.200000" d="M249.59,-183.82C251.69,-182.15 253.57,-180.23 255,-178 266.43,-160.16 248.22,-98.18 263,-83 298.06,-46.98 359.66,-48.31 400.66,-54.28"/>
<polygon fill="#000000" fill-opacity="0.200000" stroke="#000000" stroke-width="2" stroke-opacity="0.200000" points="400.55,-56.39 406.8,-55.24 401.19,-52.24 400.55,-56.39"/>
</g>
<!-- components/tabNavigation/InfoIcon.js -->
<g id="node9" class="node">
<title>components/tabNavigation/InfoIcon.js</title>
<g id="a_node9"><a xlink:href="components/tabNavigation/InfoIcon.js" xlink:title="InfoIcon.js">
<path fill="#ffffcc" stroke="black" d="M468.5,-42C468.5,-42 417.5,-42 417.5,-42 414.5,-42 411.5,-39 411.5,-36 411.5,-36 411.5,-30 411.5,-30 411.5,-27 414.5,-24 417.5,-24 417.5,-24 468.5,-24 468.5,-24 471.5,-24 474.5,-27 474.5,-30 474.5,-30 474.5,-36 474.5,-36 474.5,-39 471.5,-42 468.5,-42"/>
<text text-anchor="middle" x="443" y="-30.8" font-family="Helvetica,sans-Serif" font-size="9.00">InfoIcon.js</text>
</a>
</g>
</g>
<!-- App.js&#45;&gt;components/tabNavigation/InfoIcon.js -->
<g id="edge6" class="edge">
<title>App.js&#45;&gt;components/tabNavigation/InfoIcon.js</title>
<path fill="none" stroke="#000000" stroke-width="2" stroke-opacity="0.200000" d="M249.64,-183.85C251.73,-182.18 253.6,-180.24 255,-178 270.23,-153.65 242.97,-69.58 263,-49 299.32,-11.67 364.39,-16.22 405.26,-23.91"/>
<polygon fill="#000000" fill-opacity="0.200000" stroke="#000000" stroke-width="2" stroke-opacity="0.200000" points="405.07,-26.01 411.36,-25.11 405.88,-21.89 405.07,-26.01"/>
</g>
<!-- components/tabNavigation/ShelterIcon.js -->
<g id="node10" class="node">
<title>components/tabNavigation/ShelterIcon.js</title>
<g id="a_node10"><a xlink:href="components/tabNavigation/ShelterIcon.js" xlink:title="ShelterIcon.js">
<path fill="#ffffcc" stroke="black" d="M476,-162C476,-162 410,-162 410,-162 407,-162 404,-159 404,-156 404,-156 404,-150 404,-150 404,-147 407,-144 410,-144 410,-144 476,-144 476,-144 479,-144 482,-147 482,-150 482,-150 482,-156 482,-156 482,-159 479,-162 476,-162"/>
<text text-anchor="middle" x="443" y="-150.8" font-family="Helvetica,sans-Serif" font-size="9.00">ShelterIcon.js</text>
</a>
</g>
</g>
<!-- App.js&#45;&gt;components/tabNavigation/ShelterIcon.js -->
<g id="edge7" class="edge">
<title>App.js&#45;&gt;components/tabNavigation/ShelterIcon.js</title>
<path fill="none" stroke="#000000" stroke-width="2" stroke-opacity="0.200000" d="M254.68,-188.1C290.31,-181.42 354.56,-169.38 397.74,-161.29"/>
<polygon fill="#000000" fill-opacity="0.200000" stroke="#000000" stroke-width="2" stroke-opacity="0.200000" points="398.18,-163.35 403.69,-160.18 397.41,-159.22 398.18,-163.35"/>
</g>
<!-- screens/Chat.js -->
<g id="node11" class="node">
<title>screens/Chat.js</title>
<g id="a_node11"><a xlink:href="screens/Chat.js" xlink:title="Chat.js">
<path fill="#ffffcc" stroke="black" d="M337.5,-260C337.5,-260 295.5,-260 295.5,-260 292.5,-260 289.5,-257 289.5,-254 289.5,-254 289.5,-248 289.5,-248 289.5,-245 292.5,-242 295.5,-242 295.5,-242 337.5,-242 337.5,-242 340.5,-242 343.5,-245 343.5,-248 343.5,-248 343.5,-254 343.5,-254 343.5,-257 340.5,-260 337.5,-260"/>
<text text-anchor="middle" x="316.5" y="-248.8" font-family="Helvetica,sans-Serif" font-size="9.00">Chat.js</text>
</a>
</g>
</g>
<!-- App.js&#45;&gt;screens/Chat.js -->
<g id="edge8" class="edge">
<title>App.js&#45;&gt;screens/Chat.js</title>
<path fill="none" stroke="#000000" stroke-width="2" stroke-opacity="0.200000" d="M235.58,-202.31C242.02,-210.26 252.15,-221.55 263,-229 269.24,-233.28 276.44,-236.97 283.47,-240.04"/>
<polygon fill="#000000" fill-opacity="0.200000" stroke="#000000" stroke-width="2" stroke-opacity="0.200000" points="282.97,-242.1 289.31,-242.47 284.58,-238.23 282.97,-242.1"/>
</g>
<!-- screens/ErrorBoundary.js -->
<g id="node12" class="node">
<title>screens/ErrorBoundary.js</title>
<g id="a_node12"><a xlink:href="screens/ErrorBoundary.js" xlink:title="ErrorBoundary.js">
<path fill="#ffffcc" stroke="black" d="M356,-320C356,-320 277,-320 277,-320 274,-320 271,-317 271,-314 271,-314 271,-308 271,-308 271,-305 274,-302 277,-302 277,-302 356,-302 356,-302 359,-302 362,-305 362,-308 362,-308 362,-314 362,-314 362,-317 359,-320 356,-320"/>
<text text-anchor="middle" x="316.5" y="-308.8" font-family="Helvetica,sans-Serif" font-size="9.00">ErrorBoundary.js</text>
</a>
</g>
</g>
<!-- App.js&#45;&gt;screens/ErrorBoundary.js -->
<g id="edge9" class="edge">
<title>App.js&#45;&gt;screens/ErrorBoundary.js</title>
<path fill="none" stroke="#000000" stroke-width="2" stroke-opacity="0.200000" d="M228.84,-202.19C230.07,-222.21 235.87,-270.07 263,-296 263.87,-296.84 264.79,-297.62 265.74,-298.37"/>
<polygon fill="#000000" fill-opacity="0.200000" stroke="#000000" stroke-width="2" stroke-opacity="0.200000" points="264.63,-300.15 270.79,-301.75 266.97,-296.66 264.63,-300.15"/>
</g>
<!-- screens/Home.js -->
<g id="node13" class="node">
<title>screens/Home.js</title>
<g id="a_node13"><a xlink:href="screens/Home.js" xlink:title="Home.js">
<path fill="#ffffcc" stroke="black" d="M337.5,-290C337.5,-290 295.5,-290 295.5,-290 292.5,-290 289.5,-287 289.5,-284 289.5,-284 289.5,-278 289.5,-278 289.5,-275 292.5,-272 295.5,-272 295.5,-272 337.5,-272 337.5,-272 340.5,-272 343.5,-275 343.5,-278 343.5,-278 343.5,-284 343.5,-284 343.5,-287 340.5,-290 337.5,-290"/>
<text text-anchor="middle" x="316.5" y="-278.8" font-family="Helvetica,sans-Serif" font-size="9.00">Home.js</text>
</a>
</g>
</g>
<!-- App.js&#45;&gt;screens/Home.js -->
<g id="edge10" class="edge">
<title>App.js&#45;&gt;screens/Home.js</title>
<path fill="none" stroke="#000000" stroke-width="2" stroke-opacity="0.200000" d="M230.26,-202.11C233.72,-217.57 242.91,-248.95 263,-266 268.76,-270.89 276.02,-274.19 283.29,-276.41"/>
<polygon fill="#000000" fill-opacity="0.200000" stroke="#000000" stroke-width="2" stroke-opacity="0.200000" points="283.03,-278.51 289.36,-278.04 284.11,-274.46 283.03,-278.51"/>
</g>
<!-- screens/Chat.js&#45;&gt;components/chat/MessageArea.js -->
<g id="edge29" class="edge">
<title>screens/Chat.js&#45;&gt;components/chat/MessageArea.js</title>
<path fill="none" stroke="#000000" stroke-width="2" stroke-opacity="0.200000" d="M343.6,-248.48C358.21,-247.08 376.87,-245.28 394.02,-243.62"/>
<polygon fill="#000000" fill-opacity="0.200000" stroke="#000000" stroke-width="2" stroke-opacity="0.200000" points="394.48,-245.69 400.26,-243.02 394.08,-241.51 394.48,-245.69"/>
</g>
<!-- components/chat/AvatarOnline.js -->
<g id="node22" class="node">
<title>components/chat/AvatarOnline.js</title>
<g id="a_node22"><a xlink:href="components/chat/AvatarOnline.js" xlink:title="AvatarOnline.js">
<path fill="#ffffcc" stroke="black" d="M479,-278C479,-278 407,-278 407,-278 404,-278 401,-275 401,-272 401,-272 401,-266 401,-266 401,-263 404,-260 407,-260 407,-260 479,-260 479,-260 482,-260 485,-263 485,-266 485,-266 485,-272 485,-272 485,-275 482,-278 479,-278"/>
<text text-anchor="middle" x="443" y="-266.8" font-family="Helvetica,sans-Serif" font-size="9.00">AvatarOnline.js</text>
</a>
</g>
</g>
<!-- screens/Chat.js&#45;&gt;components/chat/AvatarOnline.js -->
<g id="edge28" class="edge">
<title>screens/Chat.js&#45;&gt;components/chat/AvatarOnline.js</title>
<path fill="none" stroke="#000000" stroke-width="2" stroke-opacity="0.200000" d="M343.6,-254.77C358.33,-256.9 377.2,-259.63 394.47,-262.13"/>
<polygon fill="#000000" fill-opacity="0.200000" stroke="#000000" stroke-width="2" stroke-opacity="0.200000" points="394.5,-264.25 400.74,-263.04 395.11,-260.1 394.5,-264.25"/>
</g>
<!-- screens/Home.js&#45;&gt;components/Header.js -->
<g id="edge30" class="edge">
<title>screens/Home.js&#45;&gt;components/Header.js</title>
<path fill="none" stroke="#000000" stroke-width="2" stroke-opacity="0.200000" d="M343.55,-279.29C353.14,-277.34 363.3,-273.48 370,-266 384.14,-250.22 363.37,-234.33 378,-219 385.69,-210.95 396.85,-207 407.71,-205.21"/>
<polygon fill="#000000" fill-opacity="0.200000" stroke="#000000" stroke-width="2" stroke-opacity="0.200000" points="408.01,-207.29 413.69,-204.42 407.46,-203.12 408.01,-207.29"/>
</g>
<!-- components/home/Forecast.js -->
<g id="node24" class="node">
<title>components/home/Forecast.js</title>
<g id="a_node24"><a xlink:href="components/home/Forecast.js" xlink:title="Forecast.js">
<path fill="#ffffcc" stroke="black" d="M469,-417C469,-417 417,-417 417,-417 414,-417 411,-414 411,-411 411,-411 411,-405 411,-405 411,-402 414,-399 417,-399 417,-399 469,-399 469,-399 472,-399 475,-402 475,-405 475,-405 475,-411 475,-411 475,-414 472,-417 469,-417"/>
<text text-anchor="middle" x="443" y="-405.8" font-family="Helvetica,sans-Serif" font-size="9.00">Forecast.js</text>
</a>
</g>
</g>
<!-- screens/Home.js&#45;&gt;components/home/Forecast.js -->
<g id="edge31" class="edge">
<title>screens/Home.js&#45;&gt;components/home/Forecast.js</title>
<path fill="none" stroke="#000000" stroke-width="2" stroke-opacity="0.200000" d="M343.53,-282.43C353.25,-284.33 363.49,-288.23 370,-296 392.38,-322.71 358.54,-345.09 378,-374 384.7,-383.96 395.29,-391.21 405.94,-396.4"/>
<polygon fill="#000000" fill-opacity="0.200000" stroke="#000000" stroke-width="2" stroke-opacity="0.200000" points="405.17,-398.35 411.5,-398.93 406.91,-394.53 405.17,-398.35"/>
</g>
<!-- helper.js -->
<g id="node25" class="node">
<title>helper.js</title>
<g id="a_node25"><a xlink:href="helper.js" xlink:title="helper.js">
<path fill="#ffffcc" stroke="black" d="M578.5,-622C578.5,-622 536.5,-622 536.5,-622 533.5,-622 530.5,-619 530.5,-616 530.5,-616 530.5,-610 530.5,-610 530.5,-607 533.5,-604 536.5,-604 536.5,-604 578.5,-604 578.5,-604 581.5,-604 584.5,-607 584.5,-610 584.5,-610 584.5,-616 584.5,-616 584.5,-619 581.5,-622 578.5,-622"/>
<text text-anchor="middle" x="557.5" y="-610.8" font-family="Helvetica,sans-Serif" font-size="9.00">helper.js</text>
</a>
</g>
</g>
<!-- screens/Home.js&#45;&gt;helper.js -->
<g id="edge34" class="edge">
<title>screens/Home.js&#45;&gt;helper.js</title>
<path fill="none" stroke="#000000" stroke-width="2" stroke-opacity="0.200000" d="M343.55,-282.14C353.39,-283.98 363.72,-287.92 370,-296 388.89,-320.31 358.41,-549.25 378,-573 413.17,-615.65 483.04,-618.79 524.16,-616.44"/>
<polygon fill="#000000" fill-opacity="0.200000" stroke="#000000" stroke-width="2" stroke-opacity="0.200000" points="524.41,-618.52 530.25,-616.03 524.13,-614.33 524.41,-618.52"/>
</g>
<!-- components/home/LocationModal.js -->
<g id="node32" class="node">
<title>components/home/LocationModal.js</title>
<g id="a_node32"><a xlink:href="components/home/LocationModal.js" xlink:title="LocationModal.js">
<path fill="#ffffcc" stroke="black" d="M482,-488C482,-488 404,-488 404,-488 401,-488 398,-485 398,-482 398,-482 398,-476 398,-476 398,-473 401,-470 404,-470 404,-470 482,-470 482,-470 485,-470 488,-473 488,-476 488,-476 488,-482 488,-482 488,-485 485,-488 482,-488"/>
<text text-anchor="middle" x="443" y="-476.8" font-family="Helvetica,sans-Serif" font-size="9.00">LocationModal.js</text>
</a>
</g>
</g>
<!-- screens/Home.js&#45;&gt;components/home/LocationModal.js -->
<g id="edge32" class="edge">
<title>screens/Home.js&#45;&gt;components/home/LocationModal.js</title>
<path fill="none" stroke="#000000" stroke-width="2" stroke-opacity="0.200000" d="M343.69,-282.3C353.43,-284.18 363.64,-288.1 370,-296 387.73,-318.03 365.51,-397.63 378,-423 387.18,-441.64 405.6,-456.71 420.34,-466.5"/>
<polygon fill="#000000" fill-opacity="0.200000" stroke="#000000" stroke-width="2" stroke-opacity="0.200000" points="419.39,-468.39 425.57,-469.86 421.66,-464.85 419.39,-468.39"/>
</g>
<!-- components/home/LocationNotSet.js -->
<g id="node34" class="node">
<title>components/home/LocationNotSet.js</title>
<g id="a_node34"><a xlink:href="components/home/LocationNotSet.js" xlink:title="LocationNotSet.js">
<path fill="#ffffcc" stroke="black" d="M484.5,-518C484.5,-518 401.5,-518 401.5,-518 398.5,-518 395.5,-515 395.5,-512 395.5,-512 395.5,-506 395.5,-506 395.5,-503 398.5,-500 401.5,-500 401.5,-500 484.5,-500 484.5,-500 487.5,-500 490.5,-503 490.5,-506 490.5,-506 490.5,-512 490.5,-512 490.5,-515 487.5,-518 484.5,-518"/>
<text text-anchor="middle" x="443" y="-506.8" font-family="Helvetica,sans-Serif" font-size="9.00">LocationNotSet.js</text>
</a>
</g>
</g>
<!-- screens/Home.js&#45;&gt;components/home/LocationNotSet.js -->
<g id="edge33" class="edge">
<title>screens/Home.js&#45;&gt;components/home/LocationNotSet.js</title>
<path fill="none" stroke="#000000" stroke-width="2" stroke-opacity="0.200000" d="M343.51,-282.17C353.34,-284.03 363.67,-287.95 370,-296 383.61,-313.31 363.98,-477.03 378,-494 381.17,-497.84 385.11,-500.8 389.48,-503.08"/>
<polygon fill="#000000" fill-opacity="0.200000" stroke="#000000" stroke-width="2" stroke-opacity="0.200000" points="388.87,-505.1 395.21,-505.61 390.57,-501.26 388.87,-505.1"/>
</g>
<!-- __mocks__/@react&#45;native&#45;async&#45;storage/async&#45;storage.js -->
<g id="node14" class="node">
<title>__mocks__/@react&#45;native&#45;async&#45;storage/async&#45;storage.js</title>
<g id="a_node14"><a xlink:href="__mocks__/@react-native-async-storage/async-storage.js" xlink:title="async&#45;storage.js">
<path fill="#ccffcc" stroke="black" d="M138.5,-485C138.5,-485 61.5,-485 61.5,-485 58.5,-485 55.5,-482 55.5,-479 55.5,-479 55.5,-473 55.5,-473 55.5,-470 58.5,-467 61.5,-467 61.5,-467 138.5,-467 138.5,-467 141.5,-467 144.5,-470 144.5,-473 144.5,-473 144.5,-479 144.5,-479 144.5,-482 141.5,-485 138.5,-485"/>
<text text-anchor="middle" x="100" y="-473.8" font-family="Helvetica,sans-Serif" font-size="9.00">async&#45;storage.js</text>
</a>
</g>
</g>
<!-- __mocks__/react&#45;native&#45;get&#45;random&#45;values.js -->
<g id="node15" class="node">
<title>__mocks__/react&#45;native&#45;get&#45;random&#45;values.js</title>
<g id="a_node15"><a xlink:href="__mocks__/react-native-get-random-values.js" xlink:title="react&#45;native&#45;get&#45;random&#45;values.js">
<path fill="#ccffcc" stroke="black" d="M178,-451C178,-451 22,-451 22,-451 19,-451 16,-448 16,-445 16,-445 16,-439 16,-439 16,-436 19,-433 22,-433 22,-433 178,-433 178,-433 181,-433 184,-436 184,-439 184,-439 184,-445 184,-445 184,-448 181,-451 178,-451"/>
<text text-anchor="middle" x="100" y="-439.8" font-family="Helvetica,sans-Serif" font-size="9.00">react&#45;native&#45;get&#45;random&#45;values.js</text>
</a>
</g>
</g>
<!-- __tests__/App&#45;test.js -->
<g id="node16" class="node">
<title>__tests__/App&#45;test.js</title>
<g id="a_node16"><a xlink:href="__tests__/App-test.js" xlink:title="App&#45;test.js">
<path fill="#ffffcc" stroke="black" d="M126.5,-230C126.5,-230 73.5,-230 73.5,-230 70.5,-230 67.5,-227 67.5,-224 67.5,-224 67.5,-218 67.5,-218 67.5,-215 70.5,-212 73.5,-212 73.5,-212 126.5,-212 126.5,-212 129.5,-212 132.5,-215 132.5,-218 132.5,-218 132.5,-224 132.5,-224 132.5,-227 129.5,-230 126.5,-230"/>
<text text-anchor="middle" x="100" y="-218.8" font-family="Helvetica,sans-Serif" font-size="9.00">App&#45;test.js</text>
</a>
</g>
</g>
<!-- __tests__/App&#45;test.js&#45;&gt;App.js -->
<g id="edge11" class="edge">
<title>__tests__/App&#45;test.js&#45;&gt;App.js</title>
<path fill="none" stroke="#000000" stroke-width="2" stroke-opacity="0.200000" d="M132.67,-213.93C151.46,-209.74 175.22,-204.44 194.13,-200.22"/>
<polygon fill="#000000" fill-opacity="0.200000" stroke="#000000" stroke-width="2" stroke-opacity="0.200000" points="194.95,-202.19 200.34,-198.84 194.03,-198.09 194.95,-202.19"/>
</g>
<!-- __tests__/Chat&#45;test.js -->
<g id="node17" class="node">
<title>__tests__/Chat&#45;test.js</title>
<g id="a_node17"><a xlink:href="__tests__/Chat-test.js" xlink:title="Chat&#45;test.js">
<path fill="#ffffcc" stroke="black" d="M128,-260C128,-260 72,-260 72,-260 69,-260 66,-257 66,-254 66,-254 66,-248 66,-248 66,-245 69,-242 72,-242 72,-242 128,-242 128,-242 131,-242 134,-245 134,-248 134,-248 134,-254 134,-254 134,-257 131,-260 128,-260"/>
<text text-anchor="middle" x="100" y="-248.8" font-family="Helvetica,sans-Serif" font-size="9.00">Chat&#45;test.js</text>
</a>
</g>
</g>
<!-- __tests__/Chat&#45;test.js&#45;&gt;screens/Chat.js -->
<g id="edge12" class="edge">
<title>__tests__/Chat&#45;test.js&#45;&gt;screens/Chat.js</title>
<path fill="none" stroke="#000000" stroke-width="2" stroke-opacity="0.200000" d="M134.05,-251C174.54,-251 242.71,-251 282.97,-251"/>
<polygon fill="#000000" fill-opacity="0.200000" stroke="#000000" stroke-width="2" stroke-opacity="0.200000" points="283.18,-253.1 289.18,-251 283.18,-248.9 283.18,-253.1"/>
</g>
<!-- __tests__/ErrorBoundary&#45;test.js -->
<g id="node18" class="node">
<title>__tests__/ErrorBoundary&#45;test.js</title>
<g id="a_node18"><a xlink:href="__tests__/ErrorBoundary-test.js" xlink:title="ErrorBoundary&#45;test.js">
<path fill="#ffffcc" stroke="black" d="M150.5,-320C150.5,-320 49.5,-320 49.5,-320 46.5,-320 43.5,-317 43.5,-314 43.5,-314 43.5,-308 43.5,-308 43.5,-305 46.5,-302 49.5,-302 49.5,-302 150.5,-302 150.5,-302 153.5,-302 156.5,-305 156.5,-308 156.5,-308 156.5,-314 156.5,-314 156.5,-317 153.5,-320 150.5,-320"/>
<text text-anchor="middle" x="100" y="-308.8" font-family="Helvetica,sans-Serif" font-size="9.00">ErrorBoundary&#45;test.js</text>
</a>
</g>
</g>
<!-- __tests__/ErrorBoundary&#45;test.js&#45;&gt;screens/ErrorBoundary.js -->
<g id="edge13" class="edge">
<title>__tests__/ErrorBoundary&#45;test.js&#45;&gt;screens/ErrorBoundary.js</title>
<path fill="none" stroke="#000000" stroke-width="2" stroke-opacity="0.200000" d="M156.52,-311C189.8,-311 231.82,-311 264.31,-311"/>
<polygon fill="#000000" fill-opacity="0.200000" stroke="#000000" stroke-width="2" stroke-opacity="0.200000" points="264.67,-313.1 270.67,-311 264.67,-308.9 264.67,-313.1"/>
</g>
<!-- __tests__/Home&#45;test.js -->
<g id="node19" class="node">
<title>__tests__/Home&#45;test.js</title>
<g id="a_node19"><a xlink:href="__tests__/Home-test.js" xlink:title="Home&#45;test.js">
<path fill="#ffffcc" stroke="black" d="M130.5,-290C130.5,-290 69.5,-290 69.5,-290 66.5,-290 63.5,-287 63.5,-284 63.5,-284 63.5,-278 63.5,-278 63.5,-275 66.5,-272 69.5,-272 69.5,-272 130.5,-272 130.5,-272 133.5,-272 136.5,-275 136.5,-278 136.5,-278 136.5,-284 136.5,-284 136.5,-287 133.5,-290 130.5,-290"/>
<text text-anchor="middle" x="100" y="-278.8" font-family="Helvetica,sans-Serif" font-size="9.00">Home&#45;test.js</text>
</a>
</g>
</g>
<!-- __tests__/Home&#45;test.js&#45;&gt;screens/Home.js -->
<g id="edge14" class="edge">
<title>__tests__/Home&#45;test.js&#45;&gt;screens/Home.js</title>
<path fill="none" stroke="#000000" stroke-width="2" stroke-opacity="0.200000" d="M136.9,-281C177.77,-281 243.93,-281 283.23,-281"/>
<polygon fill="#000000" fill-opacity="0.200000" stroke="#000000" stroke-width="2" stroke-opacity="0.200000" points="283.29,-283.1 289.29,-281 283.29,-278.9 283.29,-283.1"/>
</g>
<!-- app.json -->
<g id="node20" class="node">
<title>app.json</title>
<g id="a_node20"><a xlink:href="app.json" xlink:title="app.json">
<path fill="#ffee44" stroke="black" d="M249,-172C249,-172 206,-172 206,-172 203,-172 200,-169 200,-166 200,-166 200,-160 200,-160 200,-157 203,-154 206,-154 206,-154 249,-154 249,-154 252,-154 255,-157 255,-160 255,-160 255,-166 255,-166 255,-169 252,-172 249,-172"/>
<text text-anchor="middle" x="227.5" y="-160.8" font-family="Helvetica,sans-Serif" font-size="9.00">app.json</text>
</a>
</g>
</g>
<!-- babel.config.js -->
<g id="node21" class="node">
<title>babel.config.js</title>
<g id="a_node21"><a xlink:href="babel.config.js" xlink:title="babel.config.js">
<path fill="#ccffcc" stroke="black" d="M135.5,-563C135.5,-563 64.5,-563 64.5,-563 61.5,-563 58.5,-560 58.5,-557 58.5,-557 58.5,-551 58.5,-551 58.5,-548 61.5,-545 64.5,-545 64.5,-545 135.5,-545 135.5,-545 138.5,-545 141.5,-548 141.5,-551 141.5,-551 141.5,-557 141.5,-557 141.5,-560 138.5,-563 135.5,-563"/>
<text text-anchor="middle" x="100" y="-551.8" font-family="Helvetica,sans-Serif" font-size="9.00">babel.config.js</text>
</a>
</g>
</g>
<!-- components/chat/RobotIcon.js -->
<g id="node23" class="node">
<title>components/chat/RobotIcon.js</title>
<g id="a_node23"><a xlink:href="components/chat/RobotIcon.js" xlink:title="RobotIcon.js">
<path fill="#ffffcc" stroke="black" d="M587.5,-278C587.5,-278 527.5,-278 527.5,-278 524.5,-278 521.5,-275 521.5,-272 521.5,-272 521.5,-266 521.5,-266 521.5,-263 524.5,-260 527.5,-260 527.5,-260 587.5,-260 587.5,-260 590.5,-260 593.5,-263 593.5,-266 593.5,-266 593.5,-272 593.5,-272 593.5,-275 590.5,-278 587.5,-278"/>
<text text-anchor="middle" x="557.5" y="-266.8" font-family="Helvetica,sans-Serif" font-size="9.00">RobotIcon.js</text>
</a>
</g>
</g>
<!-- components/chat/AvatarOnline.js&#45;&gt;components/chat/RobotIcon.js -->
<g id="edge15" class="edge">
<title>components/chat/AvatarOnline.js&#45;&gt;components/chat/RobotIcon.js</title>
<path fill="none" stroke="#000000" stroke-width="2" stroke-opacity="0.200000" d="M485.25,-269C494.92,-269 505.23,-269 514.92,-269"/>
<polygon fill="#000000" fill-opacity="0.200000" stroke="#000000" stroke-width="2" stroke-opacity="0.200000" points="515.18,-271.1 521.18,-269 515.18,-266.9 515.18,-271.1"/>
</g>
<!-- components/home/Forecast.js&#45;&gt;helper.js -->
<g id="edge16" class="edge">
<title>components/home/Forecast.js&#45;&gt;helper.js</title>
<path fill="none" stroke="#000000" stroke-width="2" stroke-opacity="0.200000" d="M457.86,-417.28C471.26,-427.12 490.84,-444 500,-464 520.22,-508.17 485.69,-529.85 508,-573 513.89,-584.39 524.59,-593.76 534.45,-600.55"/>
<polygon fill="#000000" fill-opacity="0.200000" stroke="#000000" stroke-width="2" stroke-opacity="0.200000" points="533.33,-602.33 539.5,-603.87 535.63,-598.82 533.33,-602.33"/>
</g>
<!-- components/home/ForecastItem.js -->
<g id="node26" class="node">
<title>components/home/ForecastItem.js</title>
<g id="a_node26"><a xlink:href="components/home/ForecastItem.js" xlink:title="ForecastItem.js">
<path fill="#ffffcc" stroke="black" d="M594,-338C594,-338 521,-338 521,-338 518,-338 515,-335 515,-332 515,-332 515,-326 515,-326 515,-323 518,-320 521,-320 521,-320 594,-320 594,-320 597,-320 600,-323 600,-326 600,-326 600,-332 600,-332 600,-335 597,-338 594,-338"/>
<text text-anchor="middle" x="557.5" y="-326.8" font-family="Helvetica,sans-Serif" font-size="9.00">ForecastItem.js</text>
</a>
</g>
</g>
<!-- components/home/Forecast.js&#45;&gt;components/home/ForecastItem.js -->
<g id="edge17" class="edge">
<title>components/home/Forecast.js&#45;&gt;components/home/ForecastItem.js</title>
<path fill="none" stroke="#000000" stroke-width="2" stroke-opacity="0.200000" d="M467.17,-398.96C478.62,-393.38 491.73,-385.14 500,-374 508.48,-362.58 498.08,-353.2 508,-343 508.49,-342.5 508.99,-342.01 509.51,-341.54"/>
<polygon fill="#000000" fill-opacity="0.200000" stroke="#000000" stroke-width="2" stroke-opacity="0.200000" points="511.01,-343.05 514.57,-337.78 508.51,-339.68 511.01,-343.05"/>
</g>
<!-- components/home/ForecastModal.js -->
<g id="node27" class="node">
<title>components/home/ForecastModal.js</title>
<g id="a_node27"><a xlink:href="components/home/ForecastModal.js" xlink:title="ForecastModal.js">
<path fill="#ffffcc" stroke="black" d="M596.5,-514C596.5,-514 518.5,-514 518.5,-514 515.5,-514 512.5,-511 512.5,-508 512.5,-508 512.5,-502 512.5,-502 512.5,-499 515.5,-496 518.5,-496 518.5,-496 596.5,-496 596.5,-496 599.5,-496 602.5,-499 602.5,-502 602.5,-502 602.5,-508 602.5,-508 602.5,-511 599.5,-514 596.5,-514"/>
<text text-anchor="middle" x="557.5" y="-502.8" font-family="Helvetica,sans-Serif" font-size="9.00">ForecastModal.js</text>
</a>
</g>
</g>
<!-- components/home/Forecast.js&#45;&gt;components/home/ForecastModal.js -->
<g id="edge18" class="edge">
<title>components/home/Forecast.js&#45;&gt;components/home/ForecastModal.js</title>
<path fill="none" stroke="#000000" stroke-width="2" stroke-opacity="0.200000" d="M456.5,-417.36C469.21,-427.52 488.61,-444.86 500,-464 506.4,-474.76 499.12,-482.18 508,-491 508.35,-491.35 508.71,-491.69 509.07,-492.02"/>
<polygon fill="#000000" fill-opacity="0.200000" stroke="#000000" stroke-width="2" stroke-opacity="0.200000" points="508.14,-493.94 514.2,-495.86 510.66,-490.58 508.14,-493.94"/>
</g>
<!-- components/home/icons/DangerIcon.js -->
<g id="node28" class="node">
<title>components/home/icons/DangerIcon.js</title>
<g id="a_node28"><a xlink:href="components/home/icons/DangerIcon.js" xlink:title="DangerIcon.js">
<path fill="#ffffcc" stroke="black" d="M591,-402C591,-402 524,-402 524,-402 521,-402 518,-399 518,-396 518,-396 518,-390 518,-390 518,-387 521,-384 524,-384 524,-384 591,-384 591,-384 594,-384 597,-387 597,-390 597,-390 597,-396 597,-396 597,-399 594,-402 591,-402"/>
<text text-anchor="middle" x="557.5" y="-390.8" font-family="Helvetica,sans-Serif" font-size="9.00">DangerIcon.js</text>
</a>
</g>
</g>
<!-- components/home/Forecast.js&#45;&gt;components/home/icons/DangerIcon.js -->
<g id="edge19" class="edge">
<title>components/home/Forecast.js&#45;&gt;components/home/icons/DangerIcon.js</title>
<path fill="none" stroke="#000000" stroke-width="2" stroke-opacity="0.200000" d="M475.04,-403.86C486.44,-402.34 499.59,-400.59 511.94,-398.94"/>
<polygon fill="#000000" fill-opacity="0.200000" stroke="#000000" stroke-width="2" stroke-opacity="0.200000" points="512.26,-401.02 517.93,-398.14 511.71,-396.85 512.26,-401.02"/>
</g>
<!-- components/home/icons/LowIcon.js -->
<g id="node29" class="node">
<title>components/home/icons/LowIcon.js</title>
<g id="a_node29"><a xlink:href="components/home/icons/LowIcon.js" xlink:title="LowIcon.js">
<path fill="#ffffcc" stroke="black" d="M583,-372C583,-372 532,-372 532,-372 529,-372 526,-369 526,-366 526,-366 526,-360 526,-360 526,-357 529,-354 532,-354 532,-354 583,-354 583,-354 586,-354 589,-357 589,-360 589,-360 589,-366 589,-366 589,-369 586,-372 583,-372"/>
<text text-anchor="middle" x="557.5" y="-360.8" font-family="Helvetica,sans-Serif" font-size="9.00">LowIcon.js</text>
</a>
</g>
</g>
<!-- components/home/Forecast.js&#45;&gt;components/home/icons/LowIcon.js -->
<g id="edge20" class="edge">
<title>components/home/Forecast.js&#45;&gt;components/home/icons/LowIcon.js</title>
<path fill="none" stroke="#000000" stroke-width="2" stroke-opacity="0.200000" d="M461.64,-398.92C474.34,-392.59 491.98,-384.2 508,-378 511.81,-376.53 515.83,-375.09 519.86,-373.74"/>
<polygon fill="#000000" fill-opacity="0.200000" stroke="#000000" stroke-width="2" stroke-opacity="0.200000" points="520.7,-375.67 525.75,-371.81 519.39,-371.68 520.7,-375.67"/>
</g>
<!-- components/home/icons/SafeIcon.js -->
<g id="node30" class="node">
<title>components/home/icons/SafeIcon.js</title>
<g id="a_node30"><a xlink:href="components/home/icons/SafeIcon.js" xlink:title="SafeIcon.js">
<path fill="#ffffcc" stroke="black" d="M584,-462C584,-462 531,-462 531,-462 528,-462 525,-459 525,-456 525,-456 525,-450 525,-450 525,-447 528,-444 531,-444 531,-444 584,-444 584,-444 587,-444 590,-447 590,-450 590,-450 590,-456 590,-456 590,-459 587,-462 584,-462"/>
<text text-anchor="middle" x="557.5" y="-450.8" font-family="Helvetica,sans-Serif" font-size="9.00">SafeIcon.js</text>
</a>
</g>
</g>
<!-- components/home/Forecast.js&#45;&gt;components/home/icons/SafeIcon.js -->
<g id="edge21" class="edge">
<title>components/home/Forecast.js&#45;&gt;components/home/icons/SafeIcon.js</title>
<path fill="none" stroke="#000000" stroke-width="2" stroke-opacity="0.200000" d="M461.64,-417.08C474.34,-423.41 491.98,-431.8 508,-438 511.56,-439.38 515.3,-440.72 519.07,-442"/>
<polygon fill="#000000" fill-opacity="0.200000" stroke="#000000" stroke-width="2" stroke-opacity="0.200000" points="518.62,-444.06 524.97,-443.95 519.94,-440.07 518.62,-444.06"/>
</g>
<!-- components/home/icons/WarningIcon.js -->
<g id="node31" class="node">
<title>components/home/icons/WarningIcon.js</title>
<g id="a_node31"><a xlink:href="components/home/icons/WarningIcon.js" xlink:title="WarningIcon.js">
<path fill="#ffffcc" stroke="black" d="M593,-432C593,-432 522,-432 522,-432 519,-432 516,-429 516,-426 516,-426 516,-420 516,-420 516,-417 519,-414 522,-414 522,-414 593,-414 593,-414 596,-414 599,-417 599,-420 599,-420 599,-426 599,-426 599,-429 596,-432 593,-432"/>
<text text-anchor="middle" x="557.5" y="-420.8" font-family="Helvetica,sans-Serif" font-size="9.00">WarningIcon.js</text>
</a>
</g>
</g>
<!-- components/home/Forecast.js&#45;&gt;components/home/icons/WarningIcon.js -->
<g id="edge22" class="edge">
<title>components/home/Forecast.js&#45;&gt;components/home/icons/WarningIcon.js</title>
<path fill="none" stroke="#000000" stroke-width="2" stroke-opacity="0.200000" d="M475.04,-412.14C485.78,-413.57 498.08,-415.21 509.8,-416.77"/>
<polygon fill="#000000" fill-opacity="0.200000" stroke="#000000" stroke-width="2" stroke-opacity="0.200000" points="509.64,-418.87 515.86,-417.58 510.19,-414.71 509.64,-418.87"/>
</g>
<!-- components/home/LocationModal.js&#45;&gt;helper.js -->
<g id="edge23" class="edge">
<title>components/home/LocationModal.js&#45;&gt;helper.js</title>
<path fill="none" stroke="#000000" stroke-width="2" stroke-opacity="0.200000" d="M488.09,-485.06C492.62,-487.26 496.74,-490.17 500,-494 511.43,-507.44 499.68,-557.44 508,-573 514.05,-584.31 524.76,-593.67 534.59,-600.48"/>
<polygon fill="#000000" fill-opacity="0.200000" stroke="#000000" stroke-width="2" stroke-opacity="0.200000" points="533.45,-602.24 539.61,-603.8 535.77,-598.74 533.45,-602.24"/>
</g>
<!-- components/home/TickIcon.js -->
<g id="node33" class="node">
<title>components/home/TickIcon.js</title>
<g id="a_node33"><a xlink:href="components/home/TickIcon.js" xlink:title="TickIcon.js">
<path fill="#ffffcc" stroke="black" d="M583.5,-544C583.5,-544 531.5,-544 531.5,-544 528.5,-544 525.5,-541 525.5,-538 525.5,-538 525.5,-532 525.5,-532 525.5,-529 528.5,-526 531.5,-526 531.5,-526 583.5,-526 583.5,-526 586.5,-526 589.5,-529 589.5,-532 589.5,-532 589.5,-538 589.5,-538 589.5,-541 586.5,-544 583.5,-544"/>
<text text-anchor="middle" x="557.5" y="-532.8" font-family="Helvetica,sans-Serif" font-size="9.00">TickIcon.js</text>
</a>
</g>
</g>
<!-- components/home/LocationModal.js&#45;&gt;components/home/TickIcon.js -->
<g id="edge24" class="edge">
<title>components/home/LocationModal.js&#45;&gt;components/home/TickIcon.js</title>
<path fill="none" stroke="#000000" stroke-width="2" stroke-opacity="0.200000" d="M488.22,-486.1C492.55,-488.13 496.59,-490.72 500,-494 508.7,-502.39 499.46,-511.44 508,-520 511.33,-523.33 515.38,-525.93 519.71,-527.95"/>
<polygon fill="#000000" fill-opacity="0.200000" stroke="#000000" stroke-width="2" stroke-opacity="0.200000" points="518.96,-529.91 525.31,-530.21 520.53,-526.01 518.96,-529.91"/>
</g>
<!-- components/home/NextWeek.js -->
<g id="node35" class="node">
<title>components/home/NextWeek.js</title>
<g id="a_node35"><a xlink:href="components/home/NextWeek.js" xlink:title="NextWeek.js">
<path fill="#ffffcc" stroke="black" d="M472.5,-368C472.5,-368 413.5,-368 413.5,-368 410.5,-368 407.5,-365 407.5,-362 407.5,-362 407.5,-356 407.5,-356 407.5,-353 410.5,-350 413.5,-350 413.5,-350 472.5,-350 472.5,-350 475.5,-350 478.5,-353 478.5,-356 478.5,-356 478.5,-362 478.5,-362 478.5,-365 475.5,-368 472.5,-368"/>
<text text-anchor="middle" x="443" y="-356.8" font-family="Helvetica,sans-Serif" font-size="9.00">NextWeek.js</text>
</a>
</g>
</g>
<!-- components/home/NextWeek.js&#45;&gt;components/home/ForecastItem.js -->
<g id="edge25" class="edge">
<title>components/home/NextWeek.js&#45;&gt;components/home/ForecastItem.js</title>
<path fill="none" stroke="#000000" stroke-width="2" stroke-opacity="0.200000" d="M477.75,-350C489.88,-346.77 503.67,-343.09 516.29,-339.72"/>
<polygon fill="#000000" fill-opacity="0.200000" stroke="#000000" stroke-width="2" stroke-opacity="0.200000" points="517.12,-341.67 522.38,-338.1 516.04,-337.62 517.12,-341.67"/>
</g>
<!-- components/home/TimeOptions.js -->
<g id="node36" class="node">
<title>components/home/TimeOptions.js</title>
<g id="a_node36"><a xlink:href="components/home/TimeOptions.js" xlink:title="TimeOptions.js">
<path fill="#ccffcc" stroke="black" d="M478.5,-338C478.5,-338 407.5,-338 407.5,-338 404.5,-338 401.5,-335 401.5,-332 401.5,-332 401.5,-326 401.5,-326 401.5,-323 404.5,-320 407.5,-320 407.5,-320 478.5,-320 478.5,-320 481.5,-320 484.5,-323 484.5,-326 484.5,-326 484.5,-332 484.5,-332 484.5,-335 481.5,-338 478.5,-338"/>
<text text-anchor="middle" x="443" y="-326.8" font-family="Helvetica,sans-Serif" font-size="9.00">TimeOptions.js</text>
</a>
</g>
</g>
<!-- index.js -->
<g id="node37" class="node">
<title>index.js</title>
<g id="a_node37"><a xlink:href="index.js" xlink:title="index.js">
<path fill="#ffffcc" stroke="black" d="M121,-184C121,-184 79,-184 79,-184 76,-184 73,-181 73,-178 73,-178 73,-172 73,-172 73,-169 76,-166 79,-166 79,-166 121,-166 121,-166 124,-166 127,-169 127,-172 127,-172 127,-178 127,-178 127,-181 124,-184 121,-184"/>
<text text-anchor="middle" x="100" y="-172.8" font-family="Helvetica,sans-Serif" font-size="9.00">index.js</text>
</a>
</g>
</g>
<!-- index.js&#45;&gt;App.js -->
<g id="edge26" class="edge">
<title>index.js&#45;&gt;App.js</title>
<path fill="none" stroke="#000000" stroke-width="2" stroke-opacity="0.200000" d="M127,-178.73C146.48,-181.52 173.24,-185.36 194.1,-188.35"/>
<polygon fill="#000000" fill-opacity="0.200000" stroke="#000000" stroke-width="2" stroke-opacity="0.200000" points="193.86,-190.44 200.1,-189.21 194.46,-186.28 193.86,-190.44"/>
</g>
<!-- index.js&#45;&gt;app.json -->
<g id="edge27" class="edge">
<title>index.js&#45;&gt;app.json</title>
<path fill="none" stroke="#000000" stroke-width="2" stroke-opacity="0.200000" d="M127,-172.51C146.35,-170.66 172.88,-168.13 193.68,-166.14"/>
<polygon fill="#000000" fill-opacity="0.200000" stroke="#000000" stroke-width="2" stroke-opacity="0.200000" points="193.89,-168.23 199.66,-165.57 193.49,-164.05 193.89,-168.23"/>
</g>
<!-- metro.config.js -->
<g id="node38" class="node">
<title>metro.config.js</title>
<g id="a_node38"><a xlink:href="metro.config.js" xlink:title="metro.config.js">
<path fill="#ccffcc" stroke="black" d="M136.5,-593C136.5,-593 63.5,-593 63.5,-593 60.5,-593 57.5,-590 57.5,-587 57.5,-587 57.5,-581 57.5,-581 57.5,-578 60.5,-575 63.5,-575 63.5,-575 136.5,-575 136.5,-575 139.5,-575 142.5,-578 142.5,-581 142.5,-581 142.5,-587 142.5,-587 142.5,-590 139.5,-593 136.5,-593"/>
<text text-anchor="middle" x="100" y="-581.8" font-family="Helvetica,sans-Serif" font-size="9.00">metro.config.js</text>
</a>
</g>
</g>
<!-- react&#45;native.config.js -->
<g id="node39" class="node">
<title>react&#45;native.config.js</title>
<g id="a_node39"><a xlink:href="react-native.config.js" xlink:title="react&#45;native.config.js">
<path fill="#ccffcc" stroke="black" d="M150,-623C150,-623 50,-623 50,-623 47,-623 44,-620 44,-617 44,-617 44,-611 44,-611 44,-608 47,-605 50,-605 50,-605 150,-605 150,-605 153,-605 156,-608 156,-611 156,-611 156,-617 156,-617 156,-620 153,-623 150,-623"/>
<text text-anchor="middle" x="100" y="-611.8" font-family="Helvetica,sans-Serif" font-size="9.00">react&#45;native.config.js</text>
</a>
</g>
</g>
</g>
</svg>
