<svg width="30" height="30" viewBox="0 0 30 30" fill="none" xmlns="http://www.w3.org/2000/svg">
<path d="M4.292 28.572C4.292 26.551 4.292 24.781 4.292 23.069C4.17 22.971 4.129 22.915 4.076 22.902C1.007 22.148 0.00200496 20.871 0.00200496 17.714C0.00200496 13.839 -0.00399504 9.964 0.00500496 6.089C0.011005 3.18301 1.726 1.45 4.65 1.442C11.57 1.426 18.488 1.423 25.409 1.441C28.286 1.449 29.984 3.184 29.992 6.055C30.001 9.561 30.005 13.067 29.994 16.574C29.981 20.538 27.751 22.822 23.774 22.87C20.176 22.913 16.579 22.898 12.98 22.868C12.199 22.861 11.578 23.067 10.959 23.545C8.823 25.197 6.649 26.802 4.292 28.572ZM7.197 22.793C8.342 21.941 9.316 21.161 10.351 20.472C10.754 20.204 11.293 20.013 11.772 20.008C15.83 19.973 19.888 19.995 23.946 19.986C26.019 19.98 27.134 18.853 27.135 16.79C27.139 13.285 27.136 9.77901 27.134 6.273C27.133 4.749 26.679 4.284 25.177 4.283C18.353 4.277 11.527 4.276 4.701 4.275C3.432 4.275 2.87101 4.789 2.86701 6.039C2.85301 10.098 2.851 14.156 2.866 18.215C2.87101 19.514 3.363 19.969 4.677 19.986C5.491 19.997 6.307 19.988 7.198 19.988C7.197 20.971 7.197 21.786 7.197 22.793Z" fill="white"/>
<path d="M14.289 10.002C11.955 10.002 9.62001 10.007 7.28601 9.99902C6.62001 9.99702 5.99801 9.76302 5.86701 9.07302C5.78101 8.61902 5.87501 8.01202 6.13301 7.64802C6.34901 7.34502 6.92001 7.15802 7.33601 7.15402C11.913 7.11802 16.488 7.12202 21.065 7.13002C22.205 7.13102 22.841 7.66302 22.856 8.54802C22.873 9.45802 22.204 9.99802 21.014 10.002C18.772 10.011 16.53 10.005 14.286 10.005C14.289 10.004 14.289 10.003 14.289 10.002Z" fill="white"/>
<path d="M12.926 15.721C11.114 15.722 9.30301 15.727 7.49101 15.72C6.38901 15.715 5.72701 15.167 5.72701 14.283C5.72601 13.394 6.36001 12.869 7.50001 12.865C11.062 12.856 14.622 12.854 18.184 12.863C19.418 12.866 19.999 13.365 19.971 14.335C19.946 15.237 19.334 15.716 18.177 15.719C16.426 15.724 14.676 15.721 12.926 15.721Z" fill="white"/>
</svg>
