<svg width="35" height="35" viewBox="0 0 35 35" fill="none" xmlns="http://www.w3.org/2000/svg">
<path d="M17.5 0C7.83558 0 0 7.83558 0 17.5C0 27.1655 7.83558 35 17.5 35C27.1655 35 35 27.1666 35 17.5C35 7.83558 27.1654 0 17.5 0ZM17.5 31.7187C9.64692 31.7187 3.2813 25.3531 3.2813 17.5C3.2813 9.64692 9.64692 3.2813 17.5 3.2813C25.3531 3.2813 31.7187 9.64692 31.7187 17.5C31.7187 25.3531 25.3531 31.7187 17.5 31.7187ZM17.5011 7.67481C16.2477 7.67481 15.2993 8.32892 15.2993 9.38545V19.0761C15.2993 20.1337 16.2476 20.7856 17.5011 20.7856C18.7239 20.7856 19.7029 20.1064 19.7029 19.0761V9.38545C19.7028 8.354 18.7239 7.67481 17.5011 7.67481ZM17.5011 22.9688C16.2969 22.9688 15.3168 23.9488 15.3168 25.154C15.3168 26.3571 16.2969 27.3372 17.5011 27.3372C18.7053 27.3372 19.6843 26.3571 19.6843 25.154C19.6842 23.9487 18.7053 22.9688 17.5011 22.9688Z" fill="#FF0000"/>
</svg>
