<svg width="40" height="40" viewBox="0 0 40 40" fill="none" xmlns="http://www.w3.org/2000/svg">
<path d="M32.7342 38.968L30.7752 33.1869C30.6678 32.8698 30.3701 32.6564 30.0353 32.6564H29.9216V21.3275C29.9216 15.8567 25.4709 11.4059 20 11.4059C14.5291 11.4059 10.0784 15.8566 10.0784 21.3275V32.6564H9.96469C9.62984 32.6564 9.33219 32.8698 9.22476 33.1869L7.26586 38.968C7.185 39.2066 7.22414 39.4693 7.37086 39.674C7.51758 39.8786 7.75391 40 8.00578 40H31.9943C32.2462 40 32.4825 39.8786 32.6292 39.674C32.7759 39.4693 32.8151 39.2066 32.7342 38.968ZM11.6409 21.3276C11.6409 16.7184 15.3908 12.9684 20 12.9684C24.6092 12.9684 28.3591 16.7184 28.3591 21.3276V32.6565H11.6409V21.3276ZM9.09539 38.4376L10.5248 34.219H29.4751L30.9046 38.4376H9.09539Z" fill="white"/>
<path d="M20 0C19.5686 0 19.2188 0.349844 19.2188 0.78125V5.46867C19.2188 5.90008 19.5685 6.24992 20 6.24992C20.4314 6.24992 20.7812 5.90008 20.7812 5.46867V0.78125C20.7812 0.349844 20.4314 0 20 0Z" fill="white"/>
<path d="M20.5523 7.95969C20.407 7.81438 20.2055 7.73157 20 7.73157C19.7945 7.73157 19.593 7.81438 19.4477 7.95969C19.3023 8.10579 19.2188 8.30649 19.2188 8.51282C19.2188 8.71829 19.3023 8.91907 19.4477 9.06516C19.593 9.2104 19.7945 9.29329 20 9.29329C20.2055 9.29329 20.407 9.2104 20.5523 9.06516C20.6976 8.91907 20.7812 8.71829 20.7812 8.51282C20.7812 8.30649 20.6977 8.10579 20.5523 7.95969Z" fill="white"/>
<path d="M7.46125 20.9109H3.87398C3.44258 20.9109 3.09273 21.2608 3.09273 21.6922C3.09273 22.1236 3.44258 22.4734 3.87398 22.4734H7.46133C7.89273 22.4734 8.24258 22.1236 8.24258 21.6922C8.24258 21.2608 7.89265 20.9109 7.46125 20.9109Z" fill="white"/>
<path d="M1.33418 21.1399C1.18895 20.9945 0.987386 20.9109 0.781917 20.9109C0.576449 20.9109 0.374886 20.9945 0.229574 21.1399C0.0842613 21.2852 0.000667572 21.4867 0.000667572 21.6922C0.000667572 21.8977 0.0841832 22.0992 0.229574 22.2445C0.374886 22.3898 0.576449 22.4734 0.781917 22.4734C0.987386 22.4734 1.18895 22.3899 1.33418 22.2445C1.4795 22.0992 1.56317 21.8977 1.56317 21.6922C1.56317 21.4867 1.4795 21.2852 1.33418 21.1399Z" fill="white"/>
<path d="M14.7401 6.95217L13.6812 4.39585C13.516 3.99725 13.0591 3.80827 12.6604 3.97303C12.2617 4.13819 12.0725 4.59522 12.2376 4.99382L13.2965 7.55014C13.4212 7.851 13.712 8.03264 14.0186 8.03264C14.1182 8.03264 14.2195 8.01342 14.3173 7.97296C14.7159 7.80772 14.9052 7.35069 14.7401 6.95217Z" fill="white"/>
<path d="M5.85789 14.9887L3.30156 13.9298C2.90281 13.7651 2.44594 13.9541 2.28078 14.3526C2.1157 14.7513 2.305 15.2082 2.70359 15.3734L5.25992 16.4323C5.35774 16.4727 5.45899 16.492 5.55859 16.492C5.86516 16.492 6.15602 16.3103 6.2807 16.0095C6.44578 15.6108 6.25648 15.1538 5.85789 14.9887Z" fill="white"/>
<path d="M36.4516 20.9109H32.8642C32.4328 20.9109 32.083 21.2608 32.083 21.6922C32.083 22.1236 32.4328 22.4734 32.8642 22.4734H36.4516C36.883 22.4734 37.2328 22.1236 37.2328 21.6922C37.2328 21.2608 36.883 20.9109 36.4516 20.9109Z" fill="white"/>
<path d="M39.7705 21.1399C39.6252 20.9945 39.4237 20.9109 39.2182 20.9109C39.0127 20.9109 38.8112 20.9945 38.6659 21.1399C38.5205 21.2852 38.437 21.4867 38.437 21.6922C38.437 21.8977 38.5205 22.0992 38.6659 22.2445C38.8112 22.3898 39.0127 22.4734 39.2182 22.4734C39.4237 22.4734 39.6252 22.3899 39.7705 22.2445C39.9158 22.0992 39.9995 21.8977 39.9995 21.6922C39.9995 21.4867 39.9159 21.2852 39.7705 21.1399Z" fill="white"/>
<path d="M35.4491 6.24291C35.1439 5.93791 34.6494 5.93791 34.3441 6.24291L30.5002 10.087C30.1951 10.3921 30.1951 10.8867 30.5002 11.1919C30.6528 11.3445 30.8527 11.4207 31.0527 11.4207C31.2527 11.4207 31.4525 11.3444 31.6051 11.1919L35.4491 7.34783C35.7541 7.04275 35.7541 6.54807 35.4491 6.24291Z" fill="white"/>
<path d="M9.49968 10.0869L5.6557 6.24303C5.35054 5.93803 4.85601 5.93803 4.55078 6.24303C4.2457 6.54811 4.2457 7.0428 4.55078 7.34795L8.39484 11.1919C8.54742 11.3444 8.74734 11.4208 8.94726 11.4208C9.14718 11.4208 9.3471 11.3444 9.49968 11.1919C9.80476 10.8868 9.80476 10.3921 9.49968 10.0869Z" fill="white"/>
<path d="M27.3394 3.97305C26.9408 3.80836 26.4838 3.99735 26.3187 4.39586L25.2598 6.95219C25.0947 7.35078 25.284 7.80774 25.6826 7.97297C25.7804 8.01344 25.8816 8.03266 25.9812 8.03266C26.2878 8.03266 26.5787 7.85102 26.7034 7.55016L27.7623 4.99383C27.9273 4.59508 27.738 4.13821 27.3394 3.97305Z" fill="white"/>
<path d="M37.7191 14.3526C37.554 13.9539 37.097 13.7649 36.6984 13.9298L34.142 14.9887C33.7434 15.1538 33.5541 15.6109 33.7192 16.0095C33.8439 16.3103 34.1348 16.492 34.4413 16.492C34.5409 16.492 34.6422 16.4727 34.74 16.4323L37.2963 15.3734C37.695 15.2082 37.8842 14.7512 37.7191 14.3526Z" fill="white"/>
<path d="M20 16.3287C18.7077 16.3287 17.6563 17.3801 17.6563 18.6724V22.4223C17.6563 23.7147 18.7077 24.766 20 24.766C21.2923 24.766 22.3437 23.7146 22.3437 22.4223V18.6724C22.3437 17.3801 21.2923 16.3287 20 16.3287ZM20.7812 22.4223C20.7812 22.8531 20.4308 23.2036 20 23.2036C19.5692 23.2036 19.2187 22.8531 19.2187 22.4223V18.6724C19.2187 18.2416 19.5692 17.8912 20 17.8912C20.4308 17.8912 20.7812 18.2416 20.7812 18.6724V22.4223Z" fill="white"/>
<path d="M20 26.3285C18.7077 26.3285 17.6563 27.3799 17.6563 28.6722C17.6563 29.9645 18.7077 31.0159 20 31.0159C21.2923 31.0159 22.3437 29.9645 22.3437 28.6722C22.3437 27.3798 21.2923 26.3285 20 26.3285ZM20 29.4534C19.5692 29.4534 19.2187 29.103 19.2187 28.6722C19.2187 28.2414 19.5692 27.8909 20 27.8909C20.4308 27.8909 20.7812 28.2414 20.7812 28.6722C20.7812 29.103 20.4308 29.4534 20 29.4534Z" fill="white"/>
</svg>
