<svg width="30" height="30" viewBox="0 0 30 30" fill="none" xmlns="http://www.w3.org/2000/svg">
<g clip-path="url(#clip0)">
<path d="M29.9829 13.8577C29.9156 13.3429 29.6528 12.8851 29.2412 12.5686L23.7238 8.32007V4.05407C23.7238 2.98263 22.8521 2.11087 21.7811 2.11087C20.7106 2.11087 19.8384 2.98263 19.8384 4.05407V5.32803L16.1846 2.51402C15.8465 2.25451 15.4254 2.11087 14.9992 2.11087C14.5725 2.11087 14.151 2.25404 13.8128 2.51449L0.756274 12.5686C-0.0924052 13.2228 -0.25112 14.4445 0.402579 15.2932C0.773699 15.7745 1.33462 16.0505 1.94311 16.0505C2.25583 16.0505 2.5563 15.9784 2.82852 15.8381V25.9455C2.82852 27.0169 3.70028 27.8891 4.77172 27.8891H13.5006V18.7124H16.4917V27.8877H25.0967C26.1677 27.8877 27.0394 27.0164 27.0394 25.9441V15.7641C27.3451 15.9521 27.6926 16.0505 28.0553 16.0505C28.6624 16.0505 29.2242 15.7745 29.5953 15.2941C29.9128 14.883 30.0508 14.3729 29.9829 13.8577ZM28.1726 14.1968C28.1349 14.2462 28.0835 14.2542 28.0562 14.2542C28.0237 14.2542 27.9941 14.2443 27.9677 14.2236L25.2436 12.1264V25.9455C25.2436 26.0269 25.1777 26.0924 25.0972 26.0924H18.2884L18.2889 16.9161H11.7043V26.0924H4.77172C4.69119 26.0924 4.62572 26.026 4.62572 25.9455V12.2263L2.03212 14.2231C2.00574 14.2434 1.97607 14.2538 1.94358 14.2538C1.91579 14.2538 1.86493 14.2458 1.82678 14.1968C1.79616 14.1572 1.79381 14.1162 1.79758 14.0889C1.80087 14.0616 1.81359 14.0225 1.85315 13.9924L14.9111 3.93869C14.9761 3.88923 15.0237 3.88876 15.0896 3.93869L21.6356 8.97942V4.05407C21.6356 3.97307 21.7015 3.9076 21.782 3.9076C21.8626 3.9076 21.929 3.97307 21.929 4.05407V9.20407L28.1481 13.9919C28.1876 14.022 28.1989 14.0611 28.2027 14.0884C28.2065 14.1172 28.2036 14.1582 28.1726 14.1968Z" fill="white"/>
</g>
<defs>
<clipPath id="clip0">
<rect width="30" height="30" fill="white"/>
</clipPath>
</defs>
</svg>
