<svg width="40" height="40" viewBox="0 0 40 40" fill="none" xmlns="http://www.w3.org/2000/svg">
<g clip-path="url(#clip0)">
<path d="M39.2188 26.4108H6.39125C2.86711 26.4108 0 29.2779 0 32.802C0 36.3262 2.86711 39.1933 6.39125 39.1933H39.2188C39.6502 39.1933 40 38.8435 40 38.412V27.192C40 26.7605 39.6502 26.4108 39.2188 26.4108ZM6.39125 37.6308C3.72867 37.6308 1.5625 35.4646 1.5625 32.802C1.5625 30.1394 3.72867 27.9732 6.39125 27.9732H38.4375V29.7992H6.39539C4.73875 29.7992 3.39094 31.1462 3.39094 32.802C3.39094 34.4577 4.73875 35.8048 6.39539 35.8048H38.4375V37.6308H6.39125V37.6308ZM38.4375 34.2423H6.39539C5.60031 34.2423 4.95344 33.5962 4.95344 32.802C4.95344 32.0078 5.60031 31.3617 6.39539 31.3617H38.4375V34.2423Z" fill="white"/>
<path d="M3.71023 10.5734L10.4447 14.0792V19.9073C10.4447 20.7124 10.9836 21.8502 13.5508 22.698C15.2849 23.2706 17.5753 23.586 20 23.586C22.4247 23.586 24.7151 23.2706 26.4492 22.698C29.0164 21.8502 29.5553 20.7124 29.5553 19.9073V14.0792L31.5243 13.0542V17.0098C31.5243 17.4413 31.8741 17.791 32.3055 17.791C32.737 17.791 33.0868 17.4413 33.0868 17.0098V12.2408L36.2898 10.5734C36.5482 10.4388 36.7102 10.1717 36.7102 9.8804C36.7102 9.58907 36.5481 9.32196 36.2898 9.18743L20.3608 0.895002C20.1346 0.777268 19.8654 0.777268 19.6393 0.895002L3.71023 9.18743C3.4518 9.32196 3.28976 9.58907 3.28976 9.8804C3.28976 10.1717 3.45187 10.4388 3.71023 10.5734ZM27.9928 17.7828C27.5854 17.5495 27.0782 17.3243 26.4491 17.1166C24.715 16.5439 22.4246 16.2285 20 16.2285C17.5754 16.2285 15.2849 16.5439 13.5509 17.1166C12.9218 17.3243 12.4146 17.5495 12.0072 17.7828V11.9482C12.0072 11.6927 12.5487 11.1339 14.0408 10.6413C15.621 10.1194 17.7373 9.83204 20 9.83204C22.2627 9.83204 24.379 10.1195 25.9592 10.6413C27.4513 11.134 27.9928 11.6928 27.9928 11.9482V17.7828ZM25.9592 21.2143C24.379 21.7362 22.2627 22.0235 20 22.0235C17.7373 22.0235 15.621 21.7361 14.0408 21.2143C12.5487 20.7216 12.0072 20.1627 12.0072 19.9073C12.0072 19.6518 12.5487 19.093 14.0408 18.6003C15.621 18.0784 17.7373 17.7911 20 17.7911C22.2627 17.7911 24.379 18.0785 25.9592 18.6003C27.4513 19.0931 27.9928 19.6519 27.9928 19.9073C27.9928 20.1627 27.4513 20.7216 25.9592 21.2143ZM33.0868 10.4793V9.28165L34.2371 9.88047L33.0868 10.4793ZM20 2.46875L31.5243 8.46821V11.2927L29.5553 12.3177V11.9483C29.5553 11.1431 29.0164 10.0054 26.4491 9.15758C24.715 8.58493 22.4246 8.26954 20 8.26954C17.5754 8.26954 15.2849 8.58493 13.5509 9.15758C10.9836 10.0054 10.4447 11.1431 10.4447 11.9483V12.3177L5.76289 9.88047L20 2.46875Z" fill="white"/>
</g>
<defs>
<clipPath id="clip0">
<rect width="40" height="40" fill="white"/>
</clipPath>
</defs>
</svg>
