<svg width="42" height="47" viewBox="0 0 42 47" fill="none" xmlns="http://www.w3.org/2000/svg">
<mask id="path-1-outside-1" maskUnits="userSpaceOnUse" x="0" y="0.0174866" width="42" height="46" fill="black">
<rect fill="white" y="0.0174866" width="42" height="46"/>
<path d="M40.491 9.92628L21.1848 1.11444C20.8984 0.983504 20.5551 0.985341 20.2708 1.11903L1.49881 9.93087C1.19094 10.0756 1 10.3522 1 10.6531V22.1636C1.01126 31.6255 7.55591 40.1856 17.677 43.9764L20.2826 44.949C20.5261 45.0399 20.8034 45.0404 21.0475 44.9499L23.9835 43.8638C34.2923 40.1553 40.9989 31.5125 41 21.9353V10.6531C41 10.349 40.8042 10.0692 40.491 9.92628ZM39.0777 21.9353C39.0755 30.8523 32.8297 38.8983 23.231 42.3491L23.2245 42.3518L20.6677 43.2973L18.4461 42.4671C9.02499 38.9387 2.9325 30.9713 2.92177 22.1636V11.1405L20.7391 2.77619L39.0777 11.1465V21.9353Z"/>
</mask>
<path d="M40.491 9.92628L21.1848 1.11444C20.8984 0.983504 20.5551 0.985341 20.2708 1.11903L1.49881 9.93087C1.19094 10.0756 1 10.3522 1 10.6531V22.1636C1.01126 31.6255 7.55591 40.1856 17.677 43.9764L20.2826 44.949C20.5261 45.0399 20.8034 45.0404 21.0475 44.9499L23.9835 43.8638C34.2923 40.1553 40.9989 31.5125 41 21.9353V10.6531C41 10.349 40.8042 10.0692 40.491 9.92628ZM39.0777 21.9353C39.0755 30.8523 32.8297 38.8983 23.231 42.3491L23.2245 42.3518L20.6677 43.2973L18.4461 42.4671C9.02499 38.9387 2.9325 30.9713 2.92177 22.1636V11.1405L20.7391 2.77619L39.0777 11.1465V21.9353Z" fill="#00A424"/>
<path d="M40.491 9.92628L21.1848 1.11444C20.8984 0.983504 20.5551 0.985341 20.2708 1.11903L1.49881 9.93087C1.19094 10.0756 1 10.3522 1 10.6531V22.1636C1.01126 31.6255 7.55591 40.1856 17.677 43.9764L20.2826 44.949C20.5261 45.0399 20.8034 45.0404 21.0475 44.9499L23.9835 43.8638C34.2923 40.1553 40.9989 31.5125 41 21.9353V10.6531C41 10.349 40.8042 10.0692 40.491 9.92628ZM39.0777 21.9353C39.0755 30.8523 32.8297 38.8983 23.231 42.3491L23.2245 42.3518L20.6677 43.2973L18.4461 42.4671C9.02499 38.9387 2.9325 30.9713 2.92177 22.1636V11.1405L20.7391 2.77619L39.0777 11.1465V21.9353Z" stroke="#00FF38" stroke-width="2" mask="url(#path-1-outside-1)"/>
<text fill="#43FF6C" xml:space="preserve" style="white-space: pre" font-family="Roboto" font-size="9" font-weight="bold" letter-spacing="0em"><tspan x="10.207" y="26.0762">SAFE</tspan></text>
</svg>
