<svg width="40" height="40" viewBox="0 0 40 40" fill="none" xmlns="http://www.w3.org/2000/svg">
<path d="M38.4706 3.85437C38.3848 3.79732 38.2862 3.76239 38.1835 3.75269C38.0809 3.74298 37.9775 3.7588 37.8825 3.79874L26.2438 8.69937L13.9819 3.79437C13.8292 3.7339 13.659 3.73547 13.5075 3.79874L1.6325 8.79875C1.5191 8.84648 1.42232 8.92663 1.35427 9.02914C1.28623 9.13165 1.24996 9.25196 1.25 9.37499V35.625C1.24996 35.7281 1.27544 35.8296 1.32415 35.9205C1.37286 36.0114 1.4433 36.0888 1.52918 36.1458C1.61506 36.2029 1.71372 36.2378 1.81637 36.2475C1.91902 36.2571 2.02247 36.2412 2.1175 36.2012L13.7563 31.3006L26.0181 36.2056C26.1708 36.2658 26.3409 36.2642 26.4925 36.2012L38.3675 31.2012C38.4809 31.1535 38.5777 31.0734 38.6457 30.9709C38.7138 30.8683 38.75 30.748 38.75 30.625V4.37499C38.75 4.27191 38.7245 4.17042 38.6757 4.07958C38.627 3.98875 38.5565 3.91138 38.4706 3.85437ZM37.5 30.21L26.875 34.6837V22.5H25.625V34.7019L14.375 30.2019V27.5H13.125V30.21L2.5 34.6837V9.78999L13.125 5.31624V23.75H14.375V5.29812L25.625 9.79812V18.75H26.875V9.78999L37.5 5.31624V30.21Z" fill="white"/>
<path d="M31.875 14.2856V16.875H33.125V14.2944C33.6802 14.1509 34.1694 13.8212 34.5107 13.3603C34.8519 12.8995 35.0247 12.3354 35 11.7625C34.9808 11.2998 34.8335 10.8516 34.5744 10.4677C34.3154 10.0839 33.9548 9.77952 33.5329 9.58859C33.111 9.39766 32.6444 9.32767 32.185 9.38641C31.7257 9.44515 31.2917 9.63032 30.9314 9.92127C30.5711 10.2122 30.2988 10.5975 30.1447 11.0342C29.9905 11.4709 29.9607 11.9418 30.0586 12.3944C30.1564 12.8471 30.3781 13.2636 30.6988 13.5977C31.0195 13.9317 31.4267 14.1701 31.875 14.2863V14.2856ZM32.4438 10.625H32.5013C32.8328 10.6177 33.1536 10.7424 33.3932 10.9717C33.6328 11.201 33.7715 11.516 33.7788 11.8475C33.786 12.179 33.6613 12.4999 33.4321 12.7395C33.2028 12.979 32.8878 13.1177 32.5563 13.125C32.3917 13.134 32.2271 13.1101 32.0719 13.0547C31.9167 12.9993 31.7741 12.9135 31.6525 12.8024C31.5309 12.6912 31.4326 12.5569 31.3635 12.4074C31.2944 12.2578 31.2558 12.0959 31.25 11.9313C31.2424 11.7671 31.2673 11.603 31.3233 11.4485C31.3792 11.2939 31.4651 11.1519 31.576 11.0306C31.6868 10.9092 31.8206 10.811 31.9695 10.7414C32.1184 10.6718 32.2795 10.6322 32.4438 10.625Z" fill="white"/>
<path d="M8.125 27.5V23.6694C8.68022 23.5259 9.16937 23.1962 9.51065 22.7353C9.85194 22.2745 10.0247 21.7104 10 21.1375C9.98079 20.6748 9.83345 20.2265 9.57441 19.8427C9.31536 19.4588 8.95479 19.1545 8.5329 18.9636C8.111 18.7726 7.64437 18.7026 7.18503 18.7614C6.72569 18.8201 6.29169 19.0053 5.93142 19.2962C5.57115 19.5872 5.29877 19.9725 5.14466 20.4092C4.99054 20.8459 4.96075 21.3168 5.05859 21.7694C5.15644 22.222 5.37808 22.6386 5.6988 22.9726C6.01952 23.3067 6.42672 23.5451 6.875 23.6612V27.5H8.125ZM6.25 21.3062C6.24245 21.142 6.26735 20.978 6.32328 20.8234C6.37921 20.6689 6.46507 20.5269 6.57596 20.4055C6.68684 20.2842 6.82056 20.1859 6.96947 20.1163C7.11837 20.0467 7.27954 20.0072 7.44375 20H7.50125C7.74603 20.0002 7.98535 20.0723 8.18951 20.2074C8.39368 20.3424 8.55371 20.5344 8.64975 20.7595C8.74579 20.9847 8.77361 21.2331 8.72977 21.4739C8.68592 21.7147 8.57233 21.9374 8.4031 22.1142C8.23387 22.2911 8.01643 22.4143 7.77778 22.4687C7.53912 22.5231 7.28974 22.5063 7.06059 22.4202C6.83143 22.3342 6.63258 22.1827 6.48871 21.9847C6.34483 21.7867 6.26227 21.5508 6.25125 21.3062H6.25Z" fill="white"/>
<path d="M21.9443 19.8081L22.5033 18.6901L23.6208 19.2488L23.0618 20.3668L21.9443 19.8081Z" fill="white"/>
<path d="M19.7083 18.6891L20.2673 17.5711L21.3853 18.1301L20.8263 19.2481L19.7083 18.6891Z" fill="white"/>
<path d="M24.1792 20.9259L24.7382 19.8079L25.8562 20.3669L25.2972 21.4849L24.1792 20.9259Z" fill="white"/>
<path d="M26.501 20.4952L27.6625 20.0314L28.1258 21.1916L26.9644 21.6555L26.501 20.4952Z" fill="white"/>
<path d="M28.8248 19.5599L29.9856 19.0963L30.4492 20.2572L29.2884 20.7208L28.8248 19.5599Z" fill="white"/>
<path d="M31.1468 18.6307L32.2792 18.1785L32.7428 19.3393L31.6104 19.7916L31.1468 18.6307Z" fill="white"/>
<path d="M9.32742 27.5382L10.3988 26.8943L11.0427 27.9658L9.97127 28.6096L9.32742 27.5382Z" fill="white"/>
<path d="M11.4712 26.2521L12.5426 25.6082L13.1865 26.6796L12.115 27.3235L11.4712 26.2521Z" fill="white"/>
<path d="M7.186 28.8248L8.25742 28.1809L8.90128 29.2523L7.82985 29.8962L7.186 28.8248Z" fill="white"/>
<path d="M18.3364 28.1368L18.7999 26.9774L19.9593 27.4409L19.4958 28.6004L18.3364 28.1368Z" fill="white"/>
<path d="M16.0431 27.1976L16.5067 26.0368L17.6675 26.5004L17.204 27.6612L16.0431 27.1976Z" fill="white"/>
<path d="M13.7222 26.271L14.1858 25.1101L15.3466 25.5737L14.883 26.7346L13.7222 26.271Z" fill="white"/>
<path d="M19.375 25H20.625V26.25H19.375V25Z" fill="white"/>
<path d="M19.375 22.5H20.625V23.75H19.375V22.5Z" fill="white"/>
<path d="M19.375 20H20.625V21.25H19.375V20Z" fill="white"/>
</svg>
