<svg width="25" height="25" viewBox="0 0 25 25" fill="none" xmlns="http://www.w3.org/2000/svg">
<g clip-path="url(#clip0)">
<path d="M23.9089 1.62728C22.7808 1.01983 21.5225 2.19135 20.7848 2.88558C19.0927 4.53438 17.6609 6.44352 16.0554 8.1791C14.2764 10.0882 12.6276 11.9974 10.8053 13.8632C9.76391 14.9045 8.63578 16.0327 7.94155 17.3343C6.37953 15.8156 5.03446 14.1668 3.29888 12.8218C2.04058 11.8673 -0.0421118 11.173 0.00127764 13.4727C0.0880566 16.4666 2.73482 19.6775 4.68734 21.7167C5.51174 22.5845 6.59648 23.4957 7.85477 23.539C9.37341 23.6258 10.9354 21.8035 11.8466 20.8055C13.4521 19.0699 14.7538 17.1173 16.2289 15.3384C18.1381 12.9954 20.0906 10.6957 21.9564 8.30926C23.1279 6.83402 26.816 3.18923 23.9089 1.62728ZM1.91034 13.2991C1.86695 13.2991 1.82357 13.2991 1.73679 13.3424C1.56323 13.2991 1.43306 13.2557 1.2595 13.1689C1.38967 13.0821 1.60662 13.1255 1.91034 13.2991Z" fill="#2696FF"/>
</g>
<defs>
<clipPath id="clip0">
<rect width="25" height="25" fill="white"/>
</clipPath>
</defs>
</svg>
